<svg width="150" height="150" viewBox="0 0 150 150" fill="none" xmlns="http://www.w3.org/2000/svg">
<path d="M23.1905 138C19.4025 138 16.7392 136.068 15.2003 132.203C13.6615 128.339 13.6023 122.835 15.0227 115.692C16.0881 110.071 18.1004 103.688 21.0598 96.545C24.0191 89.2845 27.9846 81.1457 32.9563 72.1286C33.6665 67.5615 34.14 63.4043 34.3767 59.657C34.6135 55.7925 34.5543 51.8695 34.1992 47.888C33.8441 43.7893 33.3114 39.2808 32.6011 34.3624C32.0093 30.1466 32.4236 26.9848 33.8441 24.8769C35.2645 22.6519 37.9279 21.5394 41.8342 21.5394C45.6222 21.5394 48.6407 23.7059 50.8898 28.0387C53.1389 32.3716 54.0858 39.7492 53.7307 50.1715L48.9366 50.8741C55.092 41.8571 61.4842 34.4209 68.1131 28.5657C74.8603 22.7105 81.6076 18.319 88.3549 15.3914C95.2205 12.4638 101.849 11 108.242 11C114.279 11 119.25 11.9368 123.157 13.8105C127.063 15.6842 130.022 18.2605 132.035 21.5394C134.047 24.7012 135.29 28.2729 135.763 32.2545C136.237 36.2361 136 40.3347 135.053 44.5505C134.106 49.3518 132.153 54.0945 129.194 58.7787C126.234 63.3458 122.032 67.7958 116.587 72.1286C111.142 76.4615 104.394 80.6187 96.345 84.6003C88.2957 88.5818 78.6483 92.3292 67.4028 95.8423C72.1377 100.058 78.2931 104.274 85.869 108.49C93.5633 112.705 102.205 116.336 111.793 119.38C116.291 120.786 119.25 122.367 120.671 124.123C122.091 125.763 122.624 127.578 122.269 129.568C121.558 132.613 120.02 134.721 117.652 135.892C115.403 137.18 112.089 137.824 107.709 137.824C104.868 137.824 101.139 137.063 96.5226 135.541C91.906 134.018 86.8752 131.969 81.43 129.393C75.9849 126.817 70.6581 123.889 65.4497 120.61C60.2413 117.331 55.5655 113.876 51.4225 110.246C47.2794 106.616 44.1425 102.986 42.0118 99.3555C41.0648 97.4818 40.7689 95.491 41.124 93.3831C41.4791 91.1581 42.4261 89.1088 43.965 87.2351C45.6222 85.3615 47.7529 84.0733 50.3571 83.3707C61.9577 80.2089 71.7826 76.8128 79.832 73.1826C87.8814 69.5523 94.4511 65.9221 99.5411 62.2918C104.631 58.5445 108.419 54.9142 110.905 51.4011C113.509 47.888 115.107 44.7261 115.699 41.9156C116.409 38.5196 116.054 35.6505 114.634 33.3084C113.332 30.9663 110.55 29.7953 106.288 29.7953C102.264 29.7953 98.0023 30.7907 93.5041 32.7815C89.0059 34.7722 84.3894 37.6413 79.6544 41.3887C74.9195 45.136 70.2438 49.7616 65.6272 55.2656C61.0107 60.7695 56.6309 67.0346 52.4878 74.0609C48.4631 80.97 44.8528 88.6404 41.6567 97.0719C38.4606 105.386 35.9156 114.345 34.0216 123.947C33.193 127.695 32.3052 130.622 31.3582 132.73C30.4112 134.721 29.2275 136.068 27.807 136.77C26.5049 137.59 24.9661 138 23.1905 138Z" fill="#FF4552" style="fill:#FF4552;fill:color(display-p3 1.0000 0.2706 0.3216);fill-opacity:1;"/>
</svg>
